<svg width="197" height="45" viewBox="0 0 197 45" fill="none" xmlns="http://www.w3.org/2000/svg">
<g clip-path="url(#clip0_446_6162)">
<path d="M71.0936 15.659C71.3331 13.2499 71.6049 11.0294 71.7616 8.80421C71.8813 7.13073 72.9501 6.59743 74.3644 6.53766C76.2072 6.46411 78.05 6.48709 79.8927 6.53766C81.5374 6.57904 82.4495 7.45714 82.4541 9.10763C82.4541 20.0956 82.4541 31.0835 82.4541 42.0715C82.4541 43.5427 81.7309 44.3702 80.2981 44.4943C78.7778 44.6047 77.1839 44.807 75.7373 44.4943C74.8159 44.2829 74.1065 43.1749 73.0331 42.2324C70.8816 44.1679 68.03 44.8024 64.7867 44.9909C58.7977 45.354 53.6841 41.1428 52.1638 35.8557C50.6701 30.8844 51.0604 25.5385 53.2603 20.8358C55.8954 15.0797 62.6307 12.8224 69.3245 15.0889L71.0936 15.659ZM71.7984 29.7962C71.7984 28.7342 71.8767 27.6676 71.7984 26.6148C71.5957 24.385 69.9096 22.4173 68.0438 22.33C65.7634 22.2242 63.9437 23.4379 63.6534 25.5482C63.2526 28.4195 63.2665 31.3333 63.6949 34.2006C64.022 36.3154 66.1227 37.2579 68.053 36.9131C70.3933 36.4901 71.6971 35.0741 71.8168 32.7754C71.8214 31.7685 71.78 30.7801 71.78 29.7962H71.7984Z" fill="#54D9D5"/>
<path d="M131.863 24.8724C134.319 22.6242 136.682 20.7346 138.737 18.5187C141.335 15.7602 144.38 14.4269 148.148 14.9464C149.019 15.0659 150.452 15.5855 150.521 16.0314C150.534 17.0489 150.163 18.034 149.48 18.7899C148.153 20.2521 146.702 21.598 145.145 22.8127C143.256 24.3022 143.168 25.9068 144.099 27.9848C146.108 32.4719 147.969 37.028 149.853 41.5703C150.738 43.699 150.212 44.5127 147.89 44.6001C146.131 44.6644 144.366 44.6874 142.611 44.6001C140.455 44.4805 138.925 43.6116 138.354 41.2623C137.599 38.2831 136.484 35.3913 135.429 32.1869C133.213 33.6719 131.628 35.0143 131.849 37.5797C131.905 38.5643 131.905 39.5513 131.849 40.5359C131.776 43.653 131.038 44.4897 127.952 44.6093C120.12 44.9127 120.659 43.7541 120.705 37.9291C120.774 28.7342 120.705 19.5807 120.705 10.4087C120.705 7.24566 121.41 6.56521 124.612 6.54223C131.835 6.49166 131.835 6.49168 131.835 13.604L131.863 24.8724Z" fill="#54D9D5"/>
<path d="M14.2399 31.7686C12.1991 33.5294 10.8953 35.0465 10.9184 37.5475C10.9829 44.5633 10.688 44.7794 3.57037 44.5909C0.52982 44.5081 0.00924557 43.9886 0.00463867 40.9681C0.00463867 30.5839 0.00463867 20.1998 0.00463867 9.81565C0.00463867 6.95603 0.465332 6.54223 3.34925 6.51465C4.42265 6.51465 5.49606 6.51465 6.57407 6.51465C9.92329 6.51465 10.8308 7.3284 10.9414 10.5972C11.0197 12.9419 10.9414 15.2958 10.9414 17.6451V24.6563C11.4021 24.2655 11.9595 23.8609 12.4617 23.4103C15.1153 21.0243 17.6997 18.56 20.4316 16.2613C22.8318 14.243 25.794 14.7901 28.5628 15.1119C30.0692 15.2866 30.2351 16.721 28.9544 18.0635C27.1116 19.9898 25.2412 21.8886 23.2787 23.6862C22.2006 24.6747 22.0809 25.585 22.6475 26.9044C24.6054 31.4145 26.4851 35.9568 28.3555 40.5037C29.6915 43.7496 29.1018 44.5955 25.6144 44.6047C18.5981 44.6047 18.5935 44.6047 16.2854 37.9797C15.6312 36.0442 15.0185 34.1087 14.2399 31.7686Z" fill="#54D9D5"/>
<path d="M100.988 44.8759C97.9196 45.0736 94.5381 44.6644 91.5897 42.5771C86.2641 38.8026 85.398 33.3132 85.8679 27.4055C86.5267 19.1301 92.3452 14.3579 100.762 14.2384C105.618 14.174 110.252 14.8544 113.684 18.7025C116.909 22.3161 117.867 26.7297 117.273 31.3501C116.932 33.9845 116.264 36.7798 114.937 39.0371C112.482 43.207 108.363 44.9402 103.499 44.8759C102.812 44.8667 102.121 44.8759 100.988 44.8759ZM106.194 29.2031C105.733 27.6354 105.493 25.5619 104.609 23.7965C103.277 21.1346 99.7623 21.2495 98.4355 23.9114C96.7033 27.3917 96.6941 30.9915 98.0301 34.6465C98.6797 36.4211 99.8729 37.5935 101.674 37.5521C103.6 37.5107 104.871 36.1729 105.36 34.3339C105.737 32.7891 105.871 31.2214 106.194 29.2031Z" fill="#54D9D5"/>
<path d="M179.088 22.2976C174.67 21.1482 173.975 20.1092 174.795 16.0221C174.889 15.7269 175.051 15.4578 175.268 15.2359C175.485 15.0141 175.75 14.8457 176.043 14.744C179.517 14.0038 181.323 11.8568 181.572 8.45004C181.682 6.97885 182.313 6.53749 183.728 6.48691C189.546 6.28003 189.74 6.43175 189.763 12.2935V14.9095C191.426 14.9095 192.923 14.9692 194.416 14.9095C196.314 14.8175 196.968 15.6773 196.986 17.4979C197.023 21.5712 196.641 22.0172 192.435 22.0448H189.993C189.993 26.279 189.836 30.3202 190.062 34.366C190.168 36.2049 191.688 36.8486 193.582 36.8486C194.595 36.8486 196.378 37.3359 196.479 37.8554C196.843 39.7312 196.687 41.7127 196.581 43.6482C196.581 43.8965 195.696 44.2873 195.199 44.3011C191.785 44.4022 188.321 44.793 184.962 44.3655C181.525 43.9287 179.088 40.4208 179.065 36.9221C179.065 32.0672 179.088 27.2261 179.088 22.2976Z" fill="#54D9D5"/>
<path d="M168.953 38.0073C168.704 39.2946 168.433 40.6141 168.198 41.9427C167.861 43.8461 166.839 44.9357 164.789 44.8759C164.406 44.8759 164.024 44.8759 163.642 44.8759C157.993 44.8759 158.03 44.8759 157.22 39.1981C157.137 38.6418 156.326 37.9476 155.708 37.7407C152.424 36.6373 152.023 36.2465 153.212 33.0972C154.999 28.2883 155.676 23.3414 155.976 18.2704C156.081 17.6223 156.324 17.0044 156.689 16.458C157.054 15.9116 157.532 15.4495 158.09 15.1028C159.379 14.3517 160.829 13.9182 162.319 13.8382C163.809 13.7583 165.297 14.0342 166.659 14.643C168.645 15.5211 170.225 16.6613 170.064 19.1531C169.741 24.2701 171.188 28.9687 173.463 33.5064C174.491 35.5569 173.924 36.4442 171.69 37.1844C170.837 37.4694 169.958 37.7085 168.953 38.0073Z" fill="#54D9D5"/>
<path d="M40.6097 44.8713C36.7676 44.8713 36.2747 44.4437 35.9522 40.6738C35.7633 38.4992 35.6712 36.32 35.4915 34.1454C35.4316 33.4926 35.3671 32.4811 34.9617 32.2696C32.0041 30.7157 32.8333 27.8929 32.5523 25.5022C32.3035 23.3322 32.4049 21.1208 32.2713 18.9324C32.1469 16.8773 33.1558 15.6406 34.9893 14.9418C38.0529 13.7832 41.158 13.4017 44.392 14.3257C48.1144 15.3924 48.9989 16.3624 48.8699 20.2657C48.7824 23.3552 48.5705 26.4446 48.2203 29.5112C48.1282 30.3249 47.2483 31.0329 46.8383 31.8421C46.3101 32.7664 45.9235 33.7644 45.6911 34.8028C45.4009 36.8073 45.4332 38.8578 45.189 40.8715C44.7191 44.6414 44.4058 44.8713 40.6097 44.8713Z" fill="#54D9D5"/>
<path d="M40.4301 0.0643301C45.037 0.0643301 47.3404 2.29409 47.5247 6.45939C47.6721 10.0868 44.7606 12.9234 40.3932 13.1533C36.3392 13.3694 32.8932 10.2017 32.9715 6.45479C33.0498 2.94233 35.6804 -0.478171 40.4301 0.0643301Z" fill="#54D9D5"/>
<path d="M163.052 0.0597415C163.958 -0.0813408 164.884 -0.0205793 165.764 0.237674C166.643 0.495928 167.455 0.945268 168.14 1.55347C168.825 2.16167 169.367 2.91367 169.727 3.7555C170.086 4.59734 170.255 5.50817 170.22 6.42265C170.036 11.0707 167.189 12.9051 163.084 13.1074C159.191 13.2958 155.561 10.8454 155.842 6.24334C156.1 1.98609 158.164 0.0597415 163.052 0.0597415Z" fill="#54D9D5"/>
</g>
<defs>
<clipPath id="clip0_446_6162">
<rect width="197" height="45" fill="white"/>
</clipPath>
</defs>
</svg>
